<?xml version="1.0" encoding="UTF-8" standalone="no"?>
<!DOCTYPE svg PUBLIC "-//W3C//DTD SVG 1.1//EN"
 "http://www.w3.org/Graphics/SVG/1.1/DTD/svg11.dtd">
<!-- Generated by graphviz version 2.40.1 (20161225.0304)
 -->
<!-- Title: tokenflow Pages: 1 -->
<svg width="957pt" height="626pt"
 viewBox="0.00 0.00 956.91 625.54" xmlns="http://www.w3.org/2000/svg" xmlns:xlink="http://www.w3.org/1999/xlink">
<g id="graph0" class="graph" transform="scale(1 1) rotate(0) translate(4 621.5391)">
<title>tokenflow</title>
<polygon fill="#ffffff" stroke="transparent" points="-4,4 -4,-621.5391 952.914,-621.5391 952.914,4 -4,4"/>
<!-- player -->
<g id="node1" class="node">
<title>player</title>
<polygon fill="none" stroke="#000000" points="585.7708,-617.6395 342.0683,-617.6395 342.0683,-570.2387 585.7708,-570.2387 585.7708,-617.6395"/>
<text text-anchor="middle" x="463.9196" y="-589.1391" font-family="Microsoft YaHei" font-size="16.00" fill="#000000">游戏玩家(USDT/BUSD/DAI/UT)</text>
</g>
<!-- BRMRouter -->
<g id="node4" class="node">
<title>BRMRouter</title>
<ellipse fill="none" stroke="#000000" cx="609.9196" cy="-480.7696" rx="180" ry="36.5405"/>
<text text-anchor="middle" x="609.9196" y="-474.7696" font-family="Microsoft YaHei" font-size="20.00" fill="#000000">BRMRouter</text>
</g>
<!-- player&#45;&gt;BRMRouter -->
<g id="edge1" class="edge">
<title>player&#45;&gt;BRMRouter</title>
<path fill="none" stroke="#000000" d="M502.5902,-563.9642C518.8912,-551.3287 538.1495,-536.401 555.8207,-522.7034"/>
<polygon fill="#000000" stroke="#000000" points="500.2854,-561.3224 494.526,-570.2151 504.5739,-566.8549 500.2854,-561.3224"/>
<polygon fill="#000000" stroke="#000000" points="558.0526,-525.4018 563.812,-516.5091 553.7641,-519.8693 558.0526,-525.4018"/>
<text text-anchor="middle" x="582.3979" y="-539.7391" font-family="Times,serif" font-size="14.00" fill="#000000">wager/withdraw</text>
</g>
<!-- LPS -->
<g id="node2" class="node">
<title>LPS</title>
<polygon fill="none" stroke="#000000" points="910.1925,-617.6395 603.6467,-617.6395 603.6467,-570.2387 910.1925,-570.2387 910.1925,-617.6395"/>
<text text-anchor="middle" x="756.9196" y="-589.1391" font-family="Microsoft YaHei" font-size="16.00" fill="#000000">庄家（USDT/BUSD/DAI奖池提供者）</text>
</g>
<!-- LPS&#45;&gt;BRMRouter -->
<g id="edge3" class="edge">
<title>LPS&#45;&gt;BRMRouter</title>
<path fill="none" stroke="#000000" d="M726.1036,-570.2151C708.2659,-556.4825 685.2953,-538.7984 664.4947,-522.7848"/>
<polygon fill="#000000" stroke="#000000" points="666.402,-519.8361 656.343,-516.5091 662.1318,-525.3828 666.402,-519.8361"/>
<text text-anchor="middle" x="794.4168" y="-539.7391" font-family="Times,serif" font-size="14.00" fill="#000000">addBonusPool/removeBonusPool</text>
</g>
<!-- UTUSER -->
<g id="node3" class="node">
<title>UTUSER</title>
<polygon fill="none" stroke="#000000" points="388.3084,-36 315.5307,-36 315.5307,0 388.3084,0 388.3084,-36"/>
<text text-anchor="middle" x="351.9196" y="-13.8" font-family="Times,serif" font-size="14.00" fill="#000000">LP拥有者</text>
</g>
<!-- BGMPool -->
<g id="node7" class="node">
<title>BGMPool</title>
<ellipse fill="none" stroke="#000000" cx="272.9196" cy="-195.6" rx="50.9832" ry="18"/>
<text text-anchor="middle" x="272.9196" y="-191.4" font-family="Times,serif" font-size="14.00" fill="#000000">BGMPool</text>
</g>
<!-- UTUSER&#45;&gt;BGMPool -->
<g id="edge7" class="edge">
<title>UTUSER&#45;&gt;BGMPool</title>
<path fill="none" stroke="#000000" d="M350.1715,-36.0804C346.6685,-64.5909 336.6781,-120.7407 309.9196,-159.6 307.0826,-163.7199 303.724,-167.7545 300.2061,-171.5452"/>
<polygon fill="#000000" stroke="#000000" points="297.4354,-169.3685 292.8772,-178.9327 302.4048,-174.2984 297.4354,-169.3685"/>
<text text-anchor="middle" x="388.5199" y="-102.6" font-family="Times,serif" font-size="14.00" fill="#000000">deposit/withdraw</text>
</g>
<!-- IGame -->
<g id="node5" class="node">
<title>IGame</title>
<ellipse fill="none" stroke="#000000" cx="475.9196" cy="-373.2" rx="37.1174" ry="18"/>
<text text-anchor="middle" x="475.9196" y="-369" font-family="Times,serif" font-size="14.00" fill="#000000">IGame</text>
</g>
<!-- BRMRouter&#45;&gt;IGame -->
<g id="edge2" class="edge">
<title>BRMRouter&#45;&gt;IGame</title>
<path fill="none" stroke="#000000" d="M524.5313,-441.9631C517.525,-437.1051 510.8765,-431.7852 504.963,-426 497.5255,-418.7239 491.4834,-409.1324 486.8751,-400.1226"/>
<polygon fill="#000000" stroke="#000000" points="522.617,-444.8932 532.8977,-447.4539 526.4578,-439.041 522.617,-444.8932"/>
<polygon fill="#000000" stroke="#000000" points="490.0316,-398.6103 482.5933,-391.0656 483.7031,-401.6021 490.0316,-398.6103"/>
<text text-anchor="middle" x="551.3979" y="-413.4" font-family="Times,serif" font-size="14.00" fill="#000000">wager/withdraw</text>
</g>
<!-- LPToken -->
<g id="node6" class="node">
<title>LPToken</title>
<ellipse fill="none" stroke="#000000" cx="690.9196" cy="-106.8" rx="46.9516" ry="18"/>
<text text-anchor="middle" x="690.9196" y="-102.6" font-family="Times,serif" font-size="14.00" fill="#000000">LPToken</text>
</g>
<!-- BRMRouter&#45;&gt;LPToken -->
<g id="edge4" class="edge">
<title>BRMRouter&#45;&gt;LPToken</title>
<path fill="none" stroke="#000000" d="M702.3547,-449.184C733.2228,-432.3623 759.9196,-407.8095 759.9196,-373.2 759.9196,-373.2 759.9196,-373.2 759.9196,-195.6 759.9196,-171.3224 760.1285,-162.4852 745.9196,-142.8 741.4654,-136.6291 735.5996,-131.2303 729.3598,-126.62"/>
<polygon fill="#000000" stroke="#000000" points="730.9715,-123.4867 720.7167,-120.8237 727.0726,-129.3004 730.9715,-123.4867"/>
<text text-anchor="middle" x="854.4168" y="-280.2" font-family="Times,serif" font-size="14.00" fill="#000000">addBonusPool/removeBonusPool</text>
</g>
<!-- BRMRouter&#45;&gt;BGMPool -->
<g id="edge5" class="edge">
<title>BRMRouter&#45;&gt;BGMPool</title>
<path fill="none" stroke="#000000" d="M532.8325,-447.3809C518.1167,-440.5849 502.9373,-433.2796 488.9196,-426 461.9018,-411.9693 453.494,-410.4631 429.9196,-391.2 411.3575,-376.0326 312.8357,-259.3155 304.9196,-248.4 299.0044,-240.2435 293.1187,-230.9581 288.0384,-222.4725"/>
<polygon fill="#000000" stroke="#000000" points="290.9551,-220.5271 282.8785,-213.6699 284.9161,-224.067 290.9551,-220.5271"/>
<text text-anchor="middle" x="419.7541" y="-324.6" font-family="Times,serif" font-size="14.00" fill="#000000">addBonusPool</text>
</g>
<!-- BGMBackup -->
<g id="node8" class="node">
<title>BGMBackup</title>
<ellipse fill="none" stroke="#000000" cx="609.9196" cy="-195.6" rx="62.5624" ry="18"/>
<text text-anchor="middle" x="609.9196" y="-191.4" font-family="Times,serif" font-size="14.00" fill="#000000">BGMBackup</text>
</g>
<!-- BRMRouter&#45;&gt;BGMBackup -->
<g id="edge6" class="edge">
<title>BRMRouter&#45;&gt;BGMBackup</title>
<path fill="none" stroke="#000000" d="M609.9196,-443.781C609.9196,-386.0959 609.9196,-275.9507 609.9196,-224.025"/>
<polygon fill="#000000" stroke="#000000" points="613.4197,-223.8682 609.9196,-213.8682 606.4197,-223.8682 613.4197,-223.8682"/>
<text text-anchor="middle" x="677.2512" y="-324.6" font-family="Times,serif" font-size="14.00" fill="#000000">fillGamePool/奖池控制</text>
</g>
<!-- UTToken -->
<g id="node15" class="node">
<title>UTToken</title>
<ellipse fill="none" stroke="#000000" cx="836.9196" cy="-373.2" rx="48.6578" ry="18"/>
<text text-anchor="middle" x="836.9196" y="-369" font-family="Times,serif" font-size="14.00" fill="#000000">UTToken</text>
</g>
<!-- BRMRouter&#45;&gt;UTToken -->
<g id="edge19" class="edge">
<title>BRMRouter&#45;&gt;UTToken</title>
<path fill="none" stroke="#000000" d="M717.83,-451.1843C737.0598,-444.121 756.4972,-435.7437 773.9196,-426 787.851,-418.2086 801.6353,-407.1462 812.7414,-397.1585"/>
<polygon fill="#000000" stroke="#000000" points="815.3621,-399.5017 820.3189,-390.1379 810.6047,-394.3668 815.3621,-399.5017"/>
<text text-anchor="middle" x="812.3025" y="-413.4" font-family="Times,serif" font-size="14.00" fill="#000000">swap</text>
</g>
<!-- BGMProfitShare -->
<g id="node12" class="node">
<title>BGMProfitShare</title>
<ellipse fill="none" stroke="#000000" cx="459.9196" cy="-284.4" rx="77.0216" ry="18"/>
<text text-anchor="middle" x="459.9196" y="-280.2" font-family="Times,serif" font-size="14.00" fill="#000000">BGMProfitShare</text>
</g>
<!-- IGame&#45;&gt;BGMProfitShare -->
<g id="edge13" class="edge">
<title>IGame&#45;&gt;BGMProfitShare</title>
<path fill="none" stroke="#000000" d="M472.6817,-355.23C470.4842,-343.0338 467.533,-326.6543 465.022,-312.7187"/>
<polygon fill="#000000" stroke="#000000" points="468.4254,-311.8689 463.2075,-302.6481 461.5363,-313.1103 468.4254,-311.8689"/>
<text text-anchor="middle" x="496.9025" y="-324.6" font-family="Times,serif" font-size="14.00" fill="#000000">利润分配</text>
</g>
<!-- BGM -->
<g id="node9" class="node">
<title>BGM</title>
<ellipse fill="none" stroke="#000000" cx="499.9196" cy="-106.8" rx="33.0643" ry="18"/>
<text text-anchor="middle" x="499.9196" y="-102.6" font-family="Times,serif" font-size="14.00" fill="#000000">BGM</text>
</g>
<!-- BGMPool&#45;&gt;BGM -->
<g id="edge8" class="edge">
<title>BGMPool&#45;&gt;BGM</title>
<path fill="none" stroke="#000000" d="M307.388,-182.3141C324.9231,-175.5408 346.5672,-167.1582 365.9196,-159.6 399.006,-146.6778 436.6337,-131.8387 463.5749,-121.1891"/>
<polygon fill="#000000" stroke="#000000" points="464.9767,-124.3986 472.9889,-117.4664 462.4025,-117.8891 464.9767,-124.3986"/>
<text text-anchor="middle" x="436.8635" y="-147" font-family="Times,serif" font-size="14.00" fill="#000000">BGM奖励</text>
</g>
<!-- BGMReferences -->
<g id="node10" class="node">
<title>BGMReferences</title>
<ellipse fill="none" stroke="#000000" cx="75.9196" cy="-106.8" rx="75.8393" ry="18"/>
<text text-anchor="middle" x="75.9196" y="-102.6" font-family="Times,serif" font-size="14.00" fill="#000000">BGMReferences</text>
</g>
<!-- BGMPool&#45;&gt;BGMReferences -->
<g id="edge10" class="edge">
<title>BGMPool&#45;&gt;BGMReferences</title>
<path fill="none" stroke="#000000" d="M241.2681,-181.3327C208.7196,-166.6611 157.7321,-143.6779 120.9798,-127.1114"/>
<polygon fill="#000000" stroke="#000000" points="122.0463,-123.7531 111.4914,-122.8344 119.1697,-130.1347 122.0463,-123.7531"/>
<text text-anchor="middle" x="221.6959" y="-147" font-family="Times,serif" font-size="14.00" fill="#000000">推荐奖励</text>
</g>
<!-- NoneFeeLender -->
<g id="node11" class="node">
<title>NoneFeeLender</title>
<ellipse fill="none" stroke="#000000" cx="242.9196" cy="-106.8" rx="73.4765" ry="18"/>
<text text-anchor="middle" x="242.9196" y="-102.6" font-family="Times,serif" font-size="14.00" fill="#000000">NoneFeeLender</text>
</g>
<!-- BGMPool&#45;&gt;NoneFeeLender -->
<g id="edge12" class="edge">
<title>BGMPool&#45;&gt;NoneFeeLender</title>
<path fill="none" stroke="#000000" d="M266.8486,-177.63C262.6603,-165.2327 257.0118,-148.513 252.2545,-134.4312"/>
<polygon fill="#000000" stroke="#000000" points="255.4981,-133.097 248.9815,-124.7433 248.8663,-135.3375 255.4981,-133.097"/>
<text text-anchor="middle" x="283.3931" y="-147" font-family="Times,serif" font-size="14.00" fill="#000000">LP贷款</text>
</g>
<!-- BGMBackup&#45;&gt;LPToken -->
<g id="edge18" class="edge">
<title>BGMBackup&#45;&gt;LPToken</title>
<path fill="none" stroke="#000000" d="M615.0555,-177.4787C618.8357,-166.5296 624.8439,-152.8043 633.5402,-142.8 638.9106,-136.6218 645.6029,-131.1417 652.501,-126.4369"/>
<polygon fill="#000000" stroke="#000000" points="654.6816,-129.1993 661.2649,-120.898 650.9417,-123.282 654.6816,-129.1993"/>
<text text-anchor="middle" x="690.1093" y="-147" font-family="Times,serif" font-size="14.00" fill="#000000">bgmProfit/股权增益</text>
</g>
<!-- BGM&#45;&gt;UTUSER -->
<g id="edge9" class="edge">
<title>BGM&#45;&gt;UTUSER</title>
<path fill="none" stroke="#000000" d="M477.4416,-93.3132C454.4568,-79.5223 418.307,-57.8324 390.6931,-41.2641"/>
<polygon fill="#000000" stroke="#000000" points="392.4307,-38.225 382.055,-36.0812 388.8292,-44.2275 392.4307,-38.225"/>
<text text-anchor="middle" x="469.8635" y="-58.2" font-family="Times,serif" font-size="14.00" fill="#000000">BGM奖励</text>
</g>
<!-- BGMReferences&#45;&gt;UTUSER -->
<g id="edge11" class="edge">
<title>BGMReferences&#45;&gt;UTUSER</title>
<path fill="none" stroke="#000000" d="M121.1863,-92.2359C172.0835,-75.8603 254.304,-49.4068 305.6203,-32.8963"/>
<polygon fill="#000000" stroke="#000000" points="307.0056,-36.1273 315.4531,-29.7327 304.8616,-29.4637 307.0056,-36.1273"/>
<text text-anchor="middle" x="267.6959" y="-58.2" font-family="Times,serif" font-size="14.00" fill="#000000">推荐奖励</text>
</g>
<!-- BGMProfitShare&#45;&gt;BGMPool -->
<g id="edge14" class="edge">
<title>BGMProfitShare&#45;&gt;BGMPool</title>
<path fill="none" stroke="#000000" d="M398.6331,-273.4348C376.4547,-267.9055 351.7829,-259.8622 331.0444,-248.4 317.828,-241.0953 305.167,-230.2271 295.0549,-220.2465"/>
<polygon fill="#000000" stroke="#000000" points="297.3398,-217.5764 287.852,-212.8611 292.3285,-222.4639 297.3398,-217.5764"/>
<text text-anchor="middle" x="358.3572" y="-235.8" font-family="Times,serif" font-size="14.00" fill="#000000">40%分红</text>
</g>
<!-- BGMProfitShare&#45;&gt;BGMBackup -->
<g id="edge15" class="edge">
<title>BGMProfitShare&#45;&gt;BGMBackup</title>
<path fill="none" stroke="#000000" d="M486.2032,-267.2827C495.0754,-261.3976 504.9906,-254.7027 513.9196,-248.4 524.1163,-241.2025 525.7715,-238.1065 536.4224,-231.6 545.8912,-225.8156 556.4226,-220.2102 566.487,-215.213"/>
<polygon fill="#000000" stroke="#000000" points="568.09,-218.3254 575.5547,-210.8069 565.0306,-212.0294 568.09,-218.3254"/>
<text text-anchor="middle" x="566.6682" y="-235.8" font-family="Times,serif" font-size="14.00" fill="#000000">10%备份</text>
</g>
<!-- Repurchase -->
<g id="node13" class="node">
<title>Repurchase</title>
<ellipse fill="none" stroke="#000000" cx="471.9196" cy="-195.6" rx="56.1589" ry="18"/>
<text text-anchor="middle" x="471.9196" y="-191.4" font-family="Times,serif" font-size="14.00" fill="#000000">Repurchase</text>
</g>
<!-- BGMProfitShare&#45;&gt;Repurchase -->
<g id="edge16" class="edge">
<title>BGMProfitShare&#45;&gt;Repurchase</title>
<path fill="none" stroke="#000000" d="M459.0956,-266.2083C458.9346,-255.9789 459.2357,-243.0099 461.0458,-231.6 461.4722,-228.9119 462.0481,-226.1446 462.7135,-223.3953"/>
<polygon fill="#000000" stroke="#000000" points="466.1054,-224.2614 465.4082,-213.6896 459.3605,-222.3888 466.1054,-224.2614"/>
<text text-anchor="middle" x="488.3565" y="-235.8" font-family="Times,serif" font-size="14.00" fill="#000000">40%回购</text>
</g>
<!-- dev -->
<g id="node14" class="node">
<title>dev</title>
<ellipse fill="none" stroke="#000000" cx="370.9196" cy="-195.6" rx="27" ry="18"/>
<text text-anchor="middle" x="370.9196" y="-191.4" font-family="Times,serif" font-size="14.00" fill="#000000">dev</text>
</g>
<!-- BGMProfitShare&#45;&gt;dev -->
<g id="edge17" class="edge">
<title>BGMProfitShare&#45;&gt;dev</title>
<path fill="none" stroke="#000000" d="M425.3972,-268.3089C416.1258,-262.8855 406.6137,-256.1955 399.1524,-248.4 392.0794,-241.0102 386.2724,-231.4998 381.8031,-222.591"/>
<polygon fill="#000000" stroke="#000000" points="384.8693,-220.8837 377.482,-213.289 378.5208,-223.8328 384.8693,-220.8837"/>
<text text-anchor="middle" x="428.3032" y="-235.8" font-family="Times,serif" font-size="14.00" fill="#000000">10%团队</text>
</g>
</g>
</svg>
