<?xml version="1.0" encoding="UTF-8" standalone="no"?>
<!DOCTYPE svg PUBLIC "-//W3C//DTD SVG 1.1//EN"
 "http://www.w3.org/Graphics/SVG/1.1/DTD/svg11.dtd">
<!-- Generated by graphviz version 2.40.1 (20161225.0304)
 -->
<!-- Title: tokenflow Pages: 1 -->
<svg width="853pt" height="604pt"
 viewBox="0.00 0.00 852.67 604.00" xmlns="http://www.w3.org/2000/svg" xmlns:xlink="http://www.w3.org/1999/xlink">
<g id="graph0" class="graph" transform="scale(1 1) rotate(0) translate(4 600)">
<title>tokenflow</title>
<polygon fill="#ffffff" stroke="transparent" points="-4,4 -4,-600 848.6721,-600 848.6721,4 -4,4"/>
<!-- player -->
<g id="node1" class="node">
<title>player</title>
<polygon fill="none" stroke="#000000" points="520.137,-596.1004 276.4345,-596.1004 276.4345,-548.6996 520.137,-548.6996 520.137,-596.1004"/>
<text text-anchor="middle" x="398.2857" y="-567.6" font-family="Microsoft YaHei" font-size="16.00" fill="#000000">游戏玩家(USDT/BUSD/DAI/UT)</text>
</g>
<!-- gameroute -->
<g id="node3" class="node">
<title>gameroute</title>
<polygon fill="none" stroke="#000000" points="717.2857,-496 357.2857,-496 357.2857,-444 717.2857,-444 717.2857,-496"/>
<text text-anchor="middle" x="537.2857" y="-464" font-family="Microsoft YaHei" font-size="20.00" fill="#000000">平台网关入口</text>
</g>
<!-- player&#45;&gt;gameroute -->
<g id="edge14" class="edge">
<title>player&#45;&gt;gameroute</title>
<path fill="none" stroke="#000000" d="M415.3659,-548.5236C424.3845,-537.081 436.1834,-523.7747 448.7885,-514 454.6614,-509.4459 461.0802,-505.1733 467.6922,-501.2173"/>
<polygon fill="#000000" stroke="#000000" points="469.8447,-504.0188 476.7951,-496.0223 466.375,-497.9392 469.8447,-504.0188"/>
<text text-anchor="middle" x="482.5343" y="-518.2" font-family="Times,serif" font-size="14.00" fill="#000000">投注/领奖</text>
</g>
<!-- LPS -->
<g id="node2" class="node">
<title>LPS</title>
<polygon fill="none" stroke="#000000" points="844.5586,-596.1004 538.0129,-596.1004 538.0129,-548.6996 844.5586,-548.6996 844.5586,-596.1004"/>
<text text-anchor="middle" x="691.2857" y="-567.6" font-family="Microsoft YaHei" font-size="16.00" fill="#000000">庄家（USDT/BUSD/DAI奖池提供者）</text>
</g>
<!-- LPS&#45;&gt;gameroute -->
<g id="edge2" class="edge">
<title>LPS&#45;&gt;gameroute</title>
<path fill="none" stroke="#000000" d="M570.7097,-548.7727C555.6992,-543.6253 543.737,-537.635 538.4123,-530.8 533.0496,-523.916 531.0324,-515.139 530.7594,-506.4091"/>
<polygon fill="#000000" stroke="#000000" points="534.2612,-506.4248 531.1442,-496.2988 527.2663,-506.1584 534.2612,-506.4248"/>
<text text-anchor="middle" x="604.7224" y="-518.2" font-family="Times,serif" font-size="14.00" fill="#000000">填充奖池获取GameLP</text>
</g>
<!-- LPS&#45;&gt;gameroute -->
<g id="edge4" class="edge">
<title>LPS&#45;&gt;gameroute</title>
<path fill="none" stroke="#000000" d="M687.3419,-548.6815C684.2535,-536.8577 678.8106,-523.1648 669.2857,-514 664.3737,-509.2737 658.9408,-505.0547 653.1613,-501.2886"/>
<polygon fill="#000000" stroke="#000000" points="654.845,-498.2174 644.4663,-496.0886 651.2522,-504.225 654.845,-498.2174"/>
<text text-anchor="middle" x="726.1928" y="-518.2" font-family="Times,serif" font-size="14.00" fill="#000000">质押GameLP</text>
</g>
<!-- BGMPool -->
<g id="node10" class="node">
<title>BGMPool</title>
<ellipse fill="none" stroke="#000000" cx="342.2857" cy="-195.6" rx="58.4861" ry="18"/>
<text text-anchor="middle" x="342.2857" y="-191.4" font-family="Microsoft YaHei" font-size="14.00" fill="#000000">BGMPOOL</text>
</g>
<!-- gameroute&#45;&gt;BGMPool -->
<g id="edge5" class="edge">
<title>gameroute&#45;&gt;BGMPool</title>
<path fill="none" stroke="#000000" d="M508.4858,-443.759C481.6522,-418.3032 441.6554,-377.6877 413.4715,-337.2 387.6259,-300.0714 365.6162,-252.2274 353.1759,-222.7464"/>
<polygon fill="#000000" stroke="#000000" points="356.401,-221.3864 349.3322,-213.4945 349.9367,-224.0721 356.401,-221.3864"/>
<text text-anchor="middle" x="459.1928" y="-324.6" font-family="Times,serif" font-size="14.00" fill="#000000">质押GameLP</text>
</g>
<!-- games -->
<g id="node11" class="node">
<title>games</title>
<ellipse fill="none" stroke="#000000" cx="537.2857" cy="-373.2" rx="58.5348" ry="18"/>
<text text-anchor="middle" x="537.2857" y="-369" font-family="Microsoft YaHei" font-size="14.00" fill="#000000">游戏应用1&#45;n</text>
</g>
<!-- gameroute&#45;&gt;games -->
<g id="edge1" class="edge">
<title>gameroute&#45;&gt;games</title>
<path fill="none" stroke="#000000" d="M537.2857,-433.6654C537.2857,-423.0881 537.2857,-411.6897 537.2857,-401.6714"/>
<polygon fill="#000000" stroke="#000000" points="533.7858,-433.8045 537.2857,-443.8045 540.7858,-433.8046 533.7858,-433.8045"/>
<polygon fill="#000000" stroke="#000000" points="540.7858,-401.4464 537.2857,-391.4464 533.7858,-401.4465 540.7858,-401.4464"/>
<text text-anchor="middle" x="571.1153" y="-413.4" font-family="Times,serif" font-size="14.00" fill="#000000">UT投注分发</text>
</g>
<!-- bonusPool -->
<g id="node12" class="node">
<title>bonusPool</title>
<ellipse fill="none" stroke="#000000" cx="660.2857" cy="-284.4" rx="30.2015" ry="18"/>
<text text-anchor="middle" x="660.2857" y="-280.2" font-family="Microsoft YaHei" font-size="14.00" fill="#000000">奖池</text>
</g>
<!-- gameroute&#45;&gt;bonusPool -->
<g id="edge3" class="edge">
<title>gameroute&#45;&gt;bonusPool</title>
<path fill="none" stroke="#000000" d="M589.2165,-443.8548C596.5727,-438.6368 603.5663,-432.6742 609.2857,-426 637.423,-393.1661 650.4942,-343.6102 656.2199,-312.6725"/>
<polygon fill="#000000" stroke="#000000" points="659.7128,-313.0112 657.9515,-302.5638 652.8133,-311.8293 659.7128,-313.0112"/>
<text text-anchor="middle" x="711.7224" y="-369" font-family="Times,serif" font-size="14.00" fill="#000000">填充奖池获取GameLP</text>
</g>
<!-- GameBP -->
<g id="node4" class="node">
<title>GameBP</title>
<ellipse fill="none" stroke="#000000" cx="796.2857" cy="-195.6" rx="31.9224" ry="18"/>
<text text-anchor="middle" x="796.2857" y="-191.4" font-family="Microsoft YaHei" font-size="14.00" fill="#000000">LP池</text>
</g>
<!-- LEND -->
<g id="node5" class="node">
<title>LEND</title>
<ellipse fill="none" stroke="#000000" cx="49.2857" cy="-106.8" rx="49.0724" ry="18"/>
<text text-anchor="middle" x="49.2857" y="-102.6" font-family="Microsoft YaHei" font-size="14.00" fill="#000000">借贷代理</text>
</g>
<!-- NoneFeeUTLEND -->
<g id="node6" class="node">
<title>NoneFeeUTLEND</title>
<ellipse fill="none" stroke="#000000" cx="184.2857" cy="-106.8" rx="67.9342" ry="18"/>
<text text-anchor="middle" x="184.2857" y="-102.6" font-family="Microsoft YaHei" font-size="14.00" fill="#000000">UT零手续费</text>
</g>
<!-- UT -->
<g id="node9" class="node">
<title>UT</title>
<ellipse fill="none" stroke="#000000" cx="184.2857" cy="-18" rx="27" ry="18"/>
<text text-anchor="middle" x="184.2857" y="-13.8" font-family="Microsoft YaHei" font-size="14.00" fill="#000000">UT</text>
</g>
<!-- NoneFeeUTLEND&#45;&gt;UT -->
<g id="edge11" class="edge">
<title>NoneFeeUTLEND&#45;&gt;UT</title>
<path fill="none" stroke="#000000" d="M184.2857,-88.4006C184.2857,-76.2949 184.2857,-60.2076 184.2857,-46.4674"/>
<polygon fill="#000000" stroke="#000000" points="187.7858,-46.072 184.2857,-36.072 180.7858,-46.0721 187.7858,-46.072"/>
<text text-anchor="middle" x="211.4219" y="-58.2" font-family="Times,serif" font-size="14.00" fill="#000000">贷款70%</text>
</g>
<!-- CompoundLEND -->
<g id="node7" class="node">
<title>CompoundLEND</title>
<ellipse fill="none" stroke="#000000" cx="342.2857" cy="-106.8" rx="71.8202" ry="18"/>
<text text-anchor="middle" x="342.2857" y="-102.6" font-family="Microsoft YaHei" font-size="14.00" fill="#000000">Compound模型</text>
</g>
<!-- OtherLEND -->
<g id="node8" class="node">
<title>OtherLEND</title>
<ellipse fill="none" stroke="#000000" cx="479.2857" cy="-106.8" rx="47.6917" ry="18"/>
<text text-anchor="middle" x="479.2857" y="-102.6" font-family="Microsoft YaHei" font-size="14.00" fill="#000000">其他模型</text>
</g>
<!-- BGMPool&#45;&gt;LEND -->
<g id="edge9" class="edge">
<title>BGMPool&#45;&gt;LEND</title>
<path fill="none" stroke="#000000" d="M295.3313,-184.7891C267.5421,-178.1186 231.7441,-169.0513 200.3387,-159.6 164.0106,-148.6672 123.4562,-134.3734 93.5223,-123.4156"/>
<polygon fill="#000000" stroke="#000000" points="94.3928,-120.0066 83.7994,-119.8371 91.975,-126.5758 94.3928,-120.0066"/>
<text text-anchor="middle" x="223.7592" y="-147" font-family="Times,serif" font-size="14.00" fill="#000000">LP贷款</text>
</g>
<!-- BGMPool&#45;&gt;NoneFeeUTLEND -->
<g id="edge10" class="edge">
<title>BGMPool&#45;&gt;NoneFeeUTLEND</title>
<path fill="none" stroke="#000000" d="M314.0385,-179.7243C288.4083,-165.3195 250.4185,-143.9683 222.1617,-128.0872"/>
<polygon fill="#000000" stroke="#000000" points="223.7898,-124.9874 213.3574,-123.139 220.3601,-131.0897 223.7898,-124.9874"/>
<text text-anchor="middle" x="305.4219" y="-147" font-family="Times,serif" font-size="14.00" fill="#000000">贷款70%</text>
</g>
<!-- BGMPool&#45;&gt;CompoundLEND -->
<g id="edge12" class="edge">
<title>BGMPool&#45;&gt;CompoundLEND</title>
<path fill="none" stroke="#000000" d="M342.2857,-177.2006C342.2857,-165.0949 342.2857,-149.0076 342.2857,-135.2674"/>
<polygon fill="#000000" stroke="#000000" points="345.7858,-134.872 342.2857,-124.872 338.7858,-134.8721 345.7858,-134.872"/>
</g>
<!-- BGMPool&#45;&gt;OtherLEND -->
<g id="edge13" class="edge">
<title>BGMPool&#45;&gt;OtherLEND</title>
<path fill="none" stroke="#000000" d="M367.4136,-179.3127C389.7044,-164.8644 422.4045,-143.669 446.7001,-127.9212"/>
<polygon fill="#000000" stroke="#000000" points="448.7482,-130.7646 455.2359,-122.3885 444.9408,-124.8906 448.7482,-130.7646"/>
</g>
<!-- BGM -->
<g id="node16" class="node">
<title>BGM</title>
<ellipse fill="none" stroke="#000000" cx="578.2857" cy="-106.8" rx="33.0643" ry="18"/>
<text text-anchor="middle" x="578.2857" y="-102.6" font-family="Microsoft YaHei" font-size="14.00" fill="#000000">BGM</text>
</g>
<!-- BGMPool&#45;&gt;BGM -->
<g id="edge6" class="edge">
<title>BGMPool&#45;&gt;BGM</title>
<path fill="none" stroke="#000000" d="M381.1707,-182.1169C420.5084,-168.3112 482.9576,-145.94 536.2857,-124.8 538.3829,-123.9686 540.5325,-123.0999 542.6968,-122.2123"/>
<polygon fill="#000000" stroke="#000000" points="544.2862,-125.3415 552.1647,-118.2576 541.5883,-118.8823 544.2862,-125.3415"/>
<text text-anchor="middle" x="523.312" y="-147" font-family="Times,serif" font-size="14.00" fill="#000000">质押奖励</text>
</g>
<!-- games&#45;&gt;bonusPool -->
<g id="edge15" class="edge">
<title>games&#45;&gt;bonusPool</title>
<path fill="none" stroke="#000000" d="M557.8465,-347.8837C566.2887,-338.4968 576.5708,-328.2394 587.1973,-320.4 598.8075,-311.835 612.7688,-304.3801 625.3645,-298.5105"/>
<polygon fill="#000000" stroke="#000000" points="555.1488,-345.652 551.2206,-355.4917 560.4276,-350.2493 555.1488,-345.652"/>
<polygon fill="#000000" stroke="#000000" points="626.9759,-301.6238 634.6687,-294.3388 624.112,-295.2364 626.9759,-301.6238"/>
<text text-anchor="middle" x="616.8299" y="-324.6" font-family="Times,serif" font-size="14.00" fill="#000000">中奖返奖</text>
</g>
<!-- profit -->
<g id="node13" class="node">
<title>profit</title>
<ellipse fill="none" stroke="#000000" cx="509.2857" cy="-284.4" rx="29.7915" ry="18"/>
<text text-anchor="middle" x="509.2857" y="-280.2" font-family="Microsoft YaHei" font-size="14.00" fill="#000000">分润</text>
</g>
<!-- games&#45;&gt;profit -->
<g id="edge17" class="edge">
<title>games&#45;&gt;profit</title>
<path fill="none" stroke="#000000" d="M520.8582,-355.8032C516.617,-350.2685 512.6056,-343.846 510.3199,-337.2 507.6662,-329.4837 506.7327,-320.7509 506.644,-312.6412"/>
<polygon fill="#000000" stroke="#000000" points="510.1473,-312.5746 506.9404,-302.4768 503.1503,-312.3705 510.1473,-312.5746"/>
<text text-anchor="middle" x="538.2686" y="-324.6" font-family="Times,serif" font-size="14.00" fill="#000000">利润分配</text>
</g>
<!-- bonusPool&#45;&gt;GameBP -->
<g id="edge16" class="edge">
<title>bonusPool&#45;&gt;GameBP</title>
<path fill="none" stroke="#000000" d="M682.2824,-271.9888C694.0003,-265.2349 708.5786,-256.6038 721.2857,-248.4 737.2391,-238.1004 754.6038,-225.9393 768.6033,-215.8859"/>
<polygon fill="#000000" stroke="#000000" points="770.7857,-218.6271 776.8424,-209.9341 766.6866,-212.9528 770.7857,-218.6271"/>
<text text-anchor="middle" x="772.956" y="-235.8" font-family="Times,serif" font-size="14.00" fill="#000000">奖池分润</text>
</g>
<!-- profit&#45;&gt;BGMPool -->
<g id="edge20" class="edge">
<title>profit&#45;&gt;BGMPool</title>
<path fill="none" stroke="#000000" d="M486.7634,-272.424C459.5825,-257.971 413.4471,-233.4391 380.6259,-215.9869"/>
<polygon fill="#000000" stroke="#000000" points="382.2212,-212.8711 371.7486,-211.2665 378.9347,-219.0517 382.2212,-212.8711"/>
<text text-anchor="middle" x="467.7233" y="-235.8" font-family="Times,serif" font-size="14.00" fill="#000000">40%分红</text>
</g>
<!-- repurchase -->
<g id="node15" class="node">
<title>repurchase</title>
<ellipse fill="none" stroke="#000000" cx="498.2857" cy="-195.6" rx="79.5287" ry="18"/>
<text text-anchor="middle" x="498.2857" y="-191.4" font-family="Microsoft YaHei" font-size="14.00" fill="#000000">回购[UT&#45;&gt;BGM]</text>
</g>
<!-- profit&#45;&gt;repurchase -->
<g id="edge19" class="edge">
<title>profit&#45;&gt;repurchase</title>
<path fill="none" stroke="#000000" d="M507.0597,-266.43C505.5489,-254.2338 503.5199,-237.8543 501.7937,-223.9187"/>
<polygon fill="#000000" stroke="#000000" points="505.2491,-223.3419 500.5462,-213.8481 498.3022,-224.2025 505.2491,-223.3419"/>
<text text-anchor="middle" x="531.7226" y="-235.8" font-family="Times,serif" font-size="14.00" fill="#000000">40%回购</text>
</g>
<!-- dev -->
<g id="node17" class="node">
<title>dev</title>
<ellipse fill="none" stroke="#000000" cx="623.2857" cy="-195.6" rx="27" ry="18"/>
<text text-anchor="middle" x="623.2857" y="-191.4" font-family="Microsoft YaHei" font-size="14.00" fill="#000000">dev</text>
</g>
<!-- profit&#45;&gt;dev -->
<g id="edge18" class="edge">
<title>profit&#45;&gt;dev</title>
<path fill="none" stroke="#000000" d="M529.811,-271.2657C539.8033,-264.6696 551.8771,-256.3962 562.2857,-248.4 575.0669,-238.5812 588.6827,-226.9214 599.8004,-217.0595"/>
<polygon fill="#000000" stroke="#000000" points="602.2918,-219.5267 607.4067,-210.2483 597.6221,-214.3119 602.2918,-219.5267"/>
<text text-anchor="middle" x="611.6693" y="-235.8" font-family="Times,serif" font-size="14.00" fill="#000000">10%团队</text>
</g>
<!-- backup -->
<g id="node18" class="node">
<title>backup</title>
<ellipse fill="none" stroke="#000000" cx="707.2857" cy="-195.6" rx="38.8478" ry="18"/>
<text text-anchor="middle" x="707.2857" y="-191.4" font-family="Microsoft YaHei" font-size="14.00" fill="#000000">backup</text>
</g>
<!-- profit&#45;&gt;backup -->
<g id="edge21" class="edge">
<title>profit&#45;&gt;backup</title>
<path fill="none" stroke="#000000" d="M538.5374,-280.379C566.822,-275.6389 610.275,-266.0663 644.2857,-248.4 658.8971,-240.8104 673.1346,-229.3373 684.3673,-219.0227"/>
<polygon fill="#000000" stroke="#000000" points="686.7872,-221.5514 691.6315,-212.1289 681.9686,-216.4739 686.7872,-221.5514"/>
<text text-anchor="middle" x="571.5893" y="-284.579" font-family="Times,serif" font-size="14.00" fill="#000000">10%备用金</text>
</g>
<!-- ref -->
<g id="node14" class="node">
<title>ref</title>
<ellipse fill="none" stroke="#000000" cx="578.2857" cy="-18" rx="56.5945" ry="18"/>
<text text-anchor="middle" x="578.2857" y="-13.8" font-family="Microsoft YaHei" font-size="14.00" fill="#000000">邀请奖励</text>
</g>
<!-- ref&#45;&gt;BGM -->
<g id="edge8" class="edge">
<title>ref&#45;&gt;BGM</title>
<path fill="none" stroke="#000000" d="M583.8316,-35.9433C585.1103,-48.2141 585.3706,-64.7287 584.6125,-78.7274"/>
<polygon fill="#000000" stroke="#000000" points="581.1128,-78.5907 583.8344,-88.83 588.0921,-79.1284 581.1128,-78.5907"/>
</g>
<!-- BGM&#45;&gt;ref -->
<g id="edge7" class="edge">
<title>BGM&#45;&gt;ref</title>
<path fill="none" stroke="#000000" d="M572.7371,-88.83C571.4599,-76.553 571.2011,-60.0372 571.9606,-46.0421"/>
<polygon fill="#000000" stroke="#000000" points="575.46,-46.183 572.7399,-35.9433 568.4808,-45.6443 575.46,-46.183"/>
</g>
</g>
</svg>
